<?xml version="1.0" encoding="UTF-8" standalone="no"?>
<!-- Created with Inkscape (http://www.inkscape.org/) -->

<svg
   xmlns:dc="http://purl.org/dc/elements/1.1/"
   xmlns:cc="http://creativecommons.org/ns#"
   xmlns:rdf="http://www.w3.org/1999/02/22-rdf-syntax-ns#"
   xmlns:svg="http://www.w3.org/2000/svg"
   xmlns="http://www.w3.org/2000/svg"
   xmlns:sodipodi="http://sodipodi.sourceforge.net/DTD/sodipodi-0.dtd"
   xmlns:inkscape="http://www.inkscape.org/namespaces/inkscape"
   width="280"
   height="320"
   id="svg2"
   version="1.1"
   inkscape:version="0.48.5 r10040"
   sodipodi:docname="nicholas-phage.svg"
   inkscape:export-filename="/Users/workman/Desktop/nicholas-phage.png"
   inkscape:export-xdpi="90"
   inkscape:export-ydpi="90">
  <defs
     id="defs4" />
  <sodipodi:namedview
     id="base"
     pagecolor="#222222"
     bordercolor="#666666"
     borderopacity="1.0"
     inkscape:pageopacity="1"
     inkscape:pageshadow="2"
     inkscape:zoom="1"
     inkscape:cx="111.29465"
     inkscape:cy="191.49495"
     inkscape:document-units="px"
     inkscape:current-layer="g3014"
     showgrid="false"
     inkscape:snap-global="true"
     inkscape:window-width="1474"
     inkscape:window-height="867"
     inkscape:window-x="64"
     inkscape:window-y="50"
     inkscape:window-maximized="0"
     inkscape:snap-page="false"
     showborder="false"
     inkscape:showpageshadow="false">
    <inkscape:grid
       type="xygrid"
       id="grid2989"
       empspacing="5"
       visible="true"
       enabled="true"
       snapvisiblegridlinesonly="true" />
  </sodipodi:namedview>
  <metadata
     id="metadata7">
    <rdf:RDF>
      <cc:Work
         rdf:about="">
        <dc:format>image/svg+xml</dc:format>
        <dc:type
           rdf:resource="http://purl.org/dc/dcmitype/StillImage" />
        <dc:title></dc:title>
      </cc:Work>
    </rdf:RDF>
  </metadata>
  <g
     inkscape:groupmode="layer"
     id="layer3"
     inkscape:label="body"
     transform="translate(0,-680)"
     style="display:inline">
    <path
       style="fill:none;stroke:#ffffff;stroke-width:5;stroke-linecap:round;stroke-linejoin:round;stroke-miterlimit:4;stroke-opacity:1;stroke-dasharray:none;display:inline"
       d="m 150.87868,982.96447 35.75127,-7.94365 14.96698,18.42536"
       id="path4207"
       inkscape:connector-curvature="0"
       sodipodi:nodetypes="ccc" />
    <path
       style="fill:none;stroke:#ffffff;stroke-width:5;stroke-linecap:round;stroke-linejoin:round;stroke-miterlimit:4;stroke-opacity:1;stroke-dasharray:none;display:inline"
       d="m 141,982 -28.55025,-15.20711 -7.88731,25.42537"
       id="path4209"
       inkscape:connector-curvature="0"
       sodipodi:nodetypes="ccc" />
    <path
       style="color:#000000;fill:none;stroke:#ffffff;stroke-width:5;stroke-linecap:round;stroke-linejoin:round;stroke-miterlimit:4;stroke-opacity:1;stroke-dasharray:none;stroke-dashoffset:0;marker:none;visibility:visible;display:inline;overflow:visible;enable-background:accumulate"
       d="m 151.92893,982.70711 86.66547,-14.07969 35.39593,10.05276"
       id="path4215"
       inkscape:connector-curvature="0"
       sodipodi:nodetypes="ccc" />
    <path
       style="color:#000000;fill:none;stroke:#ffffff;stroke-width:5;stroke-linecap:round;stroke-linejoin:round;stroke-miterlimit:4;stroke-opacity:1;stroke-dasharray:none;stroke-dashoffset:0;marker:none;visibility:visible;display:inline;overflow:visible;enable-background:accumulate"
       d="m 161,977 68.01472,-22.71573 11.51723,3.05279"
       id="path4217"
       inkscape:connector-curvature="0"
       sodipodi:nodetypes="ccc" />
    <path
       style="color:#000000;fill:none;stroke:#ffffff;stroke-width:5;stroke-linecap:round;stroke-linejoin:round;stroke-miterlimit:4;stroke-opacity:1;stroke-dasharray:none;stroke-dashoffset:0;marker:none;visibility:visible;display:inline;overflow:visible;enable-background:accumulate"
       d="m 150.5,979 26.62132,-35.54416 13.48529,4.92894"
       id="path4219"
       inkscape:connector-curvature="0"
       sodipodi:nodetypes="ccc" />
    <path
       style="color:#000000;fill:none;stroke:#ffffff;stroke-width:5;stroke-linecap:round;stroke-linejoin:round;stroke-miterlimit:4;stroke-opacity:1;stroke-dasharray:none;stroke-dashoffset:0;marker:none;visibility:visible;display:inline;overflow:visible;enable-background:accumulate"
       d="M 132.44975,976 102.31371,943.28427 89.3198,953"
       id="path4221"
       inkscape:connector-curvature="0"
       sodipodi:nodetypes="ccc" />
    <path
       style="color:#000000;fill:none;stroke:#ffffff;stroke-width:5;stroke-linecap:round;stroke-linejoin:round;stroke-miterlimit:4;stroke-opacity:1;stroke-dasharray:none;stroke-dashoffset:0;marker:none;visibility:visible;display:inline;overflow:visible;enable-background:accumulate"
       d="M 137.36396,977.82843 46.55636,954.78427 9.370058,968.69239"
       id="path4223"
       inkscape:connector-curvature="0"
       sodipodi:nodetypes="ccc" />
    <path
       style="color:#000000;fill:none;stroke:#ffffff;stroke-width:5;stroke-linecap:round;stroke-linejoin:round;stroke-miterlimit:4;stroke-opacity:1;stroke-dasharray:none;stroke-dashoffset:0;marker:none;visibility:visible;display:inline;overflow:visible;enable-background:accumulate"
       d="M 136,980.53553 47.14214,965.72792 8.9386,986.90202"
       id="path4225"
       inkscape:connector-curvature="0"
       sodipodi:nodetypes="ccc" />
    <g
       style="display:inline"
       id="g4039"
       transform="matrix(12.410021,0,0,12.410021,10.198161,-12190.277)">
      <path
         inkscape:connector-curvature="0"
         id="path4047"
         d="m 9.9007132,1049.6555 0.2912298,1.6334 c 0,0 0.538856,-0.067 0.778539,0.288 0.65966,1.0956 1.031229,5.0099 1.0883,9.6575 -1.030457,0.9883 -1.686527,0.4558 -2.5867696,0 0.1060574,-4.5639 -0.6553777,-8.433 -0.9296317,-9.1837 -0.1071156,-0.2933 0.5210728,-0.5606 0.5210728,-0.5606 l -0.2912292,-1.6334 z"
         style="fill:#ffffff;fill-opacity:1;fill-rule:evenodd;stroke:none"
         sodipodi:nodetypes="ccccccccc" />
      <path
         inkscape:connector-curvature="0"
         id="path4049"
         d="m 2.4597955,1041.606 c 0.1982734,-0.4906 2.4767966,-3.5612 3.9915089,-3.7349 3.3175203,-0.3806 5.2230266,2.2554 5.6386366,2.7532 0.41561,0.4979 1.532519,5.7958 1.457739,6.1135 -0.117125,0.4975 -3.529718,3.9648 -4.2404402,3.9428 -1.0144479,-0.032 -5.1037488,-1.7485 -5.5806254,-2.8862 -0.5827902,-1.3904 -1.4422714,-5.7542 -1.2668189,-6.1884 z"
         style="fill:#95bc11;fill-opacity:1;fill-rule:evenodd;stroke:none" />
    </g>
  </g>
  <g
     style="display:inline"
     transform="translate(0,-680)"
     inkscape:label="body copy"
     id="g3014"
     inkscape:groupmode="layer">
    <path
       sodipodi:nodetypes="ccc"
       inkscape:connector-curvature="0"
       id="path3016"
       d="m 150.87868,982.96447 35.75127,-7.94365 14.96698,18.42536"
       style="fill:none;stroke:#ffffff;stroke-width:5;stroke-linecap:round;stroke-linejoin:round;stroke-miterlimit:4;stroke-opacity:1;stroke-dasharray:none;display:inline" />
    <path
       sodipodi:nodetypes="ccc"
       inkscape:connector-curvature="0"
       id="path3018"
       d="m 141,982 -28.55025,-15.20711 -7.88731,25.42537"
       style="fill:none;stroke:#ffffff;stroke-width:5;stroke-linecap:round;stroke-linejoin:round;stroke-miterlimit:4;stroke-opacity:1;stroke-dasharray:none;display:inline" />
    <path
       sodipodi:nodetypes="ccc"
       inkscape:connector-curvature="0"
       id="path3020"
       d="m 151.92893,982.70711 86.66547,-14.07969 35.39593,10.05276"
       style="color:#000000;fill:none;stroke:#ffffff;stroke-width:5;stroke-linecap:round;stroke-linejoin:round;stroke-miterlimit:4;stroke-opacity:1;stroke-dasharray:none;stroke-dashoffset:0;marker:none;visibility:visible;display:inline;overflow:visible;enable-background:accumulate" />
    <path
       sodipodi:nodetypes="ccc"
       inkscape:connector-curvature="0"
       id="path3022"
       d="m 161,977 68.01472,-22.71573 11.51723,3.05279"
       style="color:#000000;fill:none;stroke:#ffffff;stroke-width:5;stroke-linecap:round;stroke-linejoin:round;stroke-miterlimit:4;stroke-opacity:1;stroke-dasharray:none;stroke-dashoffset:0;marker:none;visibility:visible;display:inline;overflow:visible;enable-background:accumulate" />
    <path
       sodipodi:nodetypes="ccc"
       inkscape:connector-curvature="0"
       id="path3024"
       d="m 150.5,979 26.62132,-35.54416 13.48529,4.92894"
       style="color:#000000;fill:none;stroke:#ffffff;stroke-width:5;stroke-linecap:round;stroke-linejoin:round;stroke-miterlimit:4;stroke-opacity:1;stroke-dasharray:none;stroke-dashoffset:0;marker:none;visibility:visible;display:inline;overflow:visible;enable-background:accumulate" />
    <path
       sodipodi:nodetypes="ccc"
       inkscape:connector-curvature="0"
       id="path3026"
       d="M 132.44975,976 102.31371,943.28427 89.3198,953"
       style="color:#000000;fill:none;stroke:#ffffff;stroke-width:5;stroke-linecap:round;stroke-linejoin:round;stroke-miterlimit:4;stroke-opacity:1;stroke-dasharray:none;stroke-dashoffset:0;marker:none;visibility:visible;display:inline;overflow:visible;enable-background:accumulate" />
    <path
       sodipodi:nodetypes="ccc"
       inkscape:connector-curvature="0"
       id="path3028"
       d="M 137.36396,977.82843 46.55636,954.78427 9.370058,968.69239"
       style="color:#000000;fill:none;stroke:#ffffff;stroke-width:5;stroke-linecap:round;stroke-linejoin:round;stroke-miterlimit:4;stroke-opacity:1;stroke-dasharray:none;stroke-dashoffset:0;marker:none;visibility:visible;display:inline;overflow:visible;enable-background:accumulate" />
    <path
       sodipodi:nodetypes="ccc"
       inkscape:connector-curvature="0"
       id="path3030"
       d="M 136,980.53553 47.14214,965.72792 8.9386,986.90202"
       style="color:#000000;fill:none;stroke:#ffffff;stroke-width:5;stroke-linecap:round;stroke-linejoin:round;stroke-miterlimit:4;stroke-opacity:1;stroke-dasharray:none;stroke-dashoffset:0;marker:none;visibility:visible;display:inline;overflow:visible;enable-background:accumulate" />
    <g
       transform="matrix(12.410021,0,0,12.410021,10.198161,-12190.277)"
       id="g3032"
       style="display:inline">
      <path
         sodipodi:nodetypes="ccccccccc"
         style="fill:#ffffff;fill-opacity:1;fill-rule:evenodd;stroke:none"
         d="m 9.9007132,1049.6555 0.2912298,1.6334 c 0,0 0.538856,-0.067 0.778539,0.288 0.65966,1.0956 1.031229,5.0099 1.0883,9.6575 -1.030457,0.9883 -1.686527,0.4558 -2.5867696,0 0.1060574,-4.5639 -0.6553777,-8.433 -0.9296317,-9.1837 -0.1071156,-0.2933 0.5210728,-0.5606 0.5210728,-0.5606 l -0.2912292,-1.6334 z"
         id="path3034"
         inkscape:connector-curvature="0" />
      <path
         style="fill:#95bc11;fill-opacity:1;fill-rule:evenodd;stroke:none"
         d="m 2.4597955,1041.606 c 0.1982734,-0.4906 2.4767966,-3.5612 3.9915089,-3.7349 3.3175203,-0.3806 5.2230266,2.2554 5.6386366,2.7532 0.41561,0.4979 1.532519,5.7958 1.457739,6.1135 -0.117125,0.4975 -3.529718,3.9648 -4.2404402,3.9428 -1.0144479,-0.032 -5.1037488,-1.7485 -5.5806254,-2.8862 -0.5827902,-1.3904 -1.4422714,-5.7542 -1.2668189,-6.1884 z"
         id="path3036"
         inkscape:connector-curvature="0" />
    </g>
    <path
       transform="matrix(0.13974354,-0.05488903,0.05488903,0.13974354,34.23771,651.40292)"
       d="m 433.04533,788.36218 a 221.04533,221.04533 0 1 1 -442.0906639,0 221.04533,221.04533 0 1 1 442.0906639,0 z"
       sodipodi:ry="221.04533"
       sodipodi:rx="221.04533"
       sodipodi:cy="788.36218"
       sodipodi:cx="212"
       id="path3038"
       style="fill:#ffffff;fill-opacity:1;stroke:none;display:inline"
       sodipodi:type="arc" />
    <path
       sodipodi:type="arc"
       style="fill:#95bc11;fill-opacity:1;stroke:none;display:inline"
       id="path3801"
       sodipodi:cx="212"
       sodipodi:cy="788.36218"
       sodipodi:rx="106.35439"
       sodipodi:ry="106.35439"
       d="m 318.35439,788.36218 a 106.35439,106.35439 0 1 1 -212.70878,0 106.35439,106.35439 0 1 1 212.70878,0 z"
       transform="matrix(0.13974354,-0.05488903,0.05488903,0.13974354,34.23771,651.40292)" />
  </g>
</svg>
